<svg xmlns="http://www.w3.org/2000/svg" viewBox="0 0 256 256" width="256" height="256"><defs><linearGradient id="confy_g" x1="0" y1="0" x2="1" y2="1"><stop offset="0" stop-color="#86EFAC"/><stop offset="0.55" stop-color="#22C55E"/><stop offset="1" stop-color="#15803D"/></linearGradient><linearGradient id="confy_gv" x1="0" y1="0" x2="0" y2="1"><stop offset="0" stop-color="#86EFAC"/><stop offset="1" stop-color="#15803D"/></linearGradient><radialGradient id="confy_glow" cx="0.5" cy="0.5" r="0.5"><stop offset="0" stop-color="#22C55E" stop-opacity="0.55"/><stop offset="1" stop-color="#22C55E" stop-opacity="0"/></radialGradient><radialGradient id="confy_tile" cx="0.3" cy="0.25" r="0.95"><stop offset="0" stop-color="#334155"/><stop offset="1" stop-color="#0B1120"/></radialGradient><linearGradient id="confy_page" x1="0" y1="0" x2="1" y2="1"><stop offset="0" stop-color="#312E81"/><stop offset="1" stop-color="#1E1B4B"/></linearGradient></defs><path d="M86 36 C54 36 54 50 54 72 V104 C54 120 42 128 30 128 C42 128 54 136 54 152 V184 C54 206 54 220 86 220" fill="none" stroke="url(#confy_g)" stroke-width="20" stroke-linecap="round" stroke-linejoin="round"/><path d="M170 36 C202 36 202 50 202 72 V104 C202 120 214 128 226 128 C214 128 202 136 202 152 V184 C202 206 202 220 170 220" fill="none" stroke="url(#confy_g)" stroke-width="20" stroke-linecap="round" stroke-linejoin="round"/><circle cx="128" cy="128" r="40" fill="url(#confy_gv)"/><line x1="128" y1="128" x2="150" y2="102" stroke="#0F172A" stroke-width="14" stroke-linecap="round" stroke-linejoin="round"/><circle cx="128" cy="128" r="7" fill="#0F172A"/></svg>